<svg width="44" height="44" viewBox="0 0 44 44" fill="none" xmlns="http://www.w3.org/2000/svg">
<path d="M19.764 33.778L24.1174 29.4246H34.8765V33.778H19.764ZM11.8657 31.9123H13.234L27.0093 18.1369L25.6411 16.7687L11.8657 30.5441V31.9123ZM30.9585 16.7998L26.9782 12.8195L28.2843 11.5135C28.6367 11.1611 29.0772 10.9901 29.6058 11.0004C30.1345 11.0108 30.575 11.1922 30.9274 11.5446L32.2645 12.8817C32.6169 13.2342 32.7931 13.6695 32.7931 14.1878C32.7931 14.706 32.6169 15.1414 32.2645 15.4938L30.9585 16.7998ZM29.6525 18.1058L13.9802 33.778H10V29.7978L25.6722 14.1256L29.6525 18.1058ZM26.3252 17.4528L25.6411 16.7687L27.0093 18.1369L26.3252 17.4528Z" fill="white"/>
</svg>
