<svg width="54" height="54" viewBox="0 0 54 54" fill="none" xmlns="http://www.w3.org/2000/svg">
<circle cx="27" cy="27" r="26.5" stroke="#262626"/>
<path d="M27 34.7656C28.5815 34.7656 29.9167 34.2253 31.0056 33.1445C32.0944 32.0638 32.6389 30.7292 32.6389 29.1406C32.6389 27.526 32.0944 26.1784 31.0056 25.0977C29.9167 24.0169 28.5815 23.4766 27 23.4766C25.4185 23.4766 24.0833 24.0169 22.9944 25.0977C21.9056 26.1784 21.3611 27.526 21.3611 29.1406C21.3611 30.7292 21.9056 32.0638 22.9944 33.1445C24.0833 34.2253 25.4185 34.7656 27 34.7656ZM27 33.5937C25.7296 33.5937 24.6731 33.1641 23.8306 32.3047C22.988 31.4453 22.5667 30.3906 22.5667 29.1406C22.5667 27.8646 22.988 26.8034 23.8306 25.957C24.6731 25.1107 25.7296 24.6875 27 24.6875C28.2704 24.6875 29.3269 25.1107 30.1694 25.957C31.012 26.8034 31.4333 27.8646 31.4333 29.1406C31.4333 30.3906 31.012 31.4453 30.1694 32.3047C29.3269 33.1641 28.2704 33.5937 27 33.5937ZM15.1389 40C14.5426 40 14.037 39.7917 13.6222 39.375C13.2074 38.9583 13 38.4505 13 37.8516V20.4297C13 19.8307 13.2074 19.3164 13.6222 18.8867C14.037 18.457 14.5426 18.2422 15.1389 18.2422H20.1167L22.9944 15H31.0056L33.8833 18.2422H38.8611C39.4574 18.2422 39.963 18.457 40.3778 18.8867C40.7926 19.3164 41 19.8307 41 20.4297V37.8516C41 38.4505 40.7926 38.9583 40.3778 39.375C39.963 39.7917 39.4574 40 38.8611 40H15.1389ZM38.8611 38.7891C39.1204 38.7891 39.3407 38.6979 39.5222 38.5156C39.7037 38.3333 39.7944 38.112 39.7944 37.8516V20.4297C39.7944 20.1693 39.7037 19.9414 39.5222 19.7461C39.3407 19.5508 39.1204 19.4531 38.8611 19.4531H33.3389L30.4611 16.2109H23.5389L20.6611 19.4531H15.1389C14.8796 19.4531 14.6593 19.5508 14.4778 19.7461C14.2963 19.9414 14.2056 20.1693 14.2056 20.4297V37.8516C14.2056 38.112 14.2963 38.3333 14.4778 38.5156C14.6593 38.6979 14.8796 38.7891 15.1389 38.7891H38.8611Z" fill="#262626"/>
</svg>
