<svg width="54" height="54" viewBox="0 0 54 54" fill="none" xmlns="http://www.w3.org/2000/svg">
<circle cx="27" cy="27" r="26.5" stroke="#262626"/>
<path d="M22.0588 32.0353H36.1824L31.8176 26.2294L27.5765 31.5412L24.8588 28.3294L22.0588 32.0353ZM19.4647 37.8C18.8333 37.8 18.298 37.5804 17.8588 37.1412C17.4196 36.702 17.2 36.1667 17.2 35.5353V16.2647C17.2 15.6333 17.4196 15.098 17.8588 14.6588C18.298 14.2196 18.8333 14 19.4647 14H38.7353C39.3667 14 39.902 14.2196 40.3412 14.6588C40.7804 15.098 41 15.6333 41 16.2647V35.5353C41 36.1667 40.7804 36.702 40.3412 37.1412C39.902 37.5804 39.3667 37.8 38.7353 37.8H19.4647ZM19.4647 36.5647H38.7353C38.9824 36.5647 39.2088 36.4549 39.4147 36.2353C39.6206 36.0157 39.7235 35.7824 39.7235 35.5353V16.2647C39.7235 16.0176 39.6206 15.7912 39.4147 15.5853C39.2088 15.3794 38.9824 15.2765 38.7353 15.2765H19.4647C19.2176 15.2765 18.9843 15.3794 18.7647 15.5853C18.5451 15.7912 18.4353 16.0176 18.4353 16.2647V35.5353C18.4353 35.7824 18.5451 36.0157 18.7647 36.2353C18.9843 36.4549 19.2176 36.5647 19.4647 36.5647ZM15.2647 42C14.6333 42 14.098 41.7804 13.6588 41.3412C13.2196 40.902 13 40.3667 13 39.7353V19.1882H14.2765V39.7353C14.2765 39.9824 14.3794 40.2088 14.5853 40.4147C14.7912 40.6206 15.0176 40.7235 15.2647 40.7235H35.8118V42H15.2647Z" fill="black"/>
</svg>
